<?xml version="1.0" encoding="utf-8"?>
<!-- Uploaded to: SVG Repo, www.svgrepo.com, Generator: SVG Repo Mixer Tools -->
<svg width="800px" height="800px" viewBox="0 0 1024 1024" class="icon"  version="1.1" xmlns="http://www.w3.org/2000/svg"><path d="M224 453.5l13.4-117.8h152.5v-45.5h100.4V134.9h87v318.6H224" fill="#B6CDEF" /><path d="M577.3 468.5H224c-4.3 0-8.3-1.8-11.2-5-2.8-3.2-4.2-7.4-3.7-11.7L222.5 334c0.9-7.6 7.3-13.3 14.9-13.3H375v-30.5c0-8.3 6.7-15 15-15h85.4V134.9c0-8.3 6.7-15 15-15h87c8.3 0 15 6.7 15 15v318.5c-0.1 8.3-6.8 15.1-15.1 15.1z m-336.5-30h321.5V149.9h-57v140.2c0 8.3-6.7 15-15 15h-85.4v30.5c0 8.3-6.7 15-15 15H250.8l-10 87.9z" fill="#0F53A8" /><path d="M788.7 619.4H130.3V490.7c0-35.3 28.6-64 64-64h503.5l90.9 192.7z" fill="#B6CDEF" /><path d="M788.7 634.4H130.3c-8.3 0-15-6.7-15-15V490.7c0-43.5 35.4-79 79-79h503.5c5.8 0 11.1 3.3 13.6 8.6l91 192.7c2.2 4.6 1.9 10.1-0.9 14.4-2.8 4.4-7.6 7-12.8 7z m-643.4-30h619.8l-76.8-162.7h-494c-27 0-49 22-49 49v113.7z" fill="#0F53A8" /><path d="M141 865.6h637s116.4-212.8 224.8-283.7H28.6S109.3 709 141 865.6z" fill="#B6CDEF" /><path d="M778 880.6H141c-7.1 0-13.3-5-14.7-12C95.6 716.7 16.7 591.2 15.9 590c-2.9-4.6-3.1-10.5-0.5-15.3 2.6-4.8 7.7-7.8 13.1-7.8h974.3c6.6 0 12.5 4.4 14.4 10.7 1.9 6.4-0.6 13.2-6.2 16.8-104 68.2-218.7 276.3-219.8 278.4-2.6 4.8-7.7 7.8-13.2 7.8z m-624.8-30h616.1c9.8-17.2 35.1-60.6 68.2-108.8 43.5-63.3 84.2-111.8 121.6-145H54.8c8.2 14.6 19.4 35.6 31.7 61.7 21.3 45.4 49.6 114.6 66.7 192.1z" fill="#0F53A8" /><path d="M743.2 523H237.4v-44.6h484.8z" fill="#89B7F5" /><path d="M743.2 538H237.4c-8.3 0-15-6.7-15-15v-44.6c0-8.3 6.7-15 15-15h484.8c5.8 0 11.1 3.3 13.6 8.6l21.1 44.6c2.2 4.6 1.9 10.1-0.9 14.4-2.8 4.4-7.6 7-12.8 7z m-490.8-30h467.2l-6.9-14.6H252.4V508z" fill="#0F53A8" /><path d="M497 327.7h136.5v99H497z" fill="#89B7F5" /><path d="M633.5 441.7H497c-8.3 0-15-6.7-15-15v-99c0-8.3 6.7-15 15-15h136.5c8.3 0 15 6.7 15 15v99c0 8.3-6.7 15-15 15z m-121.5-30h106.5v-69H512v69z" fill="#0F53A8" /><path d="M185.6 705m-19.6 0a19.6 19.6 0 1 0 39.2 0 19.6 19.6 0 1 0-39.2 0Z" fill="#89B7F5" /><path d="M185.6 734.7c-16.3 0-29.6-13.3-29.6-29.6s13.3-29.6 29.6-29.6 29.6 13.3 29.6 29.6-13.2 29.6-29.6 29.6z m0-39.3c-5.3 0-9.6 4.3-9.6 9.6s4.3 9.6 9.6 9.6 9.6-4.3 9.6-9.6-4.3-9.6-9.6-9.6z" fill="#0F53A8" /><path d="M268.7 705m-19.6 0a19.6 19.6 0 1 0 39.2 0 19.6 19.6 0 1 0-39.2 0Z" fill="#89B7F5" /><path d="M268.7 734.7c-16.3 0-29.6-13.3-29.6-29.6s13.3-29.6 29.6-29.6 29.6 13.3 29.6 29.6-13.2 29.6-29.6 29.6z m0-39.3c-5.3 0-9.6 4.3-9.6 9.6s4.3 9.6 9.6 9.6 9.6-4.3 9.6-9.6-4.3-9.6-9.6-9.6z" fill="#0F53A8" /><path d="M351.8 705m-19.6 0a19.6 19.6 0 1 0 39.2 0 19.6 19.6 0 1 0-39.2 0Z" fill="#89B7F5" /><path d="M351.8 734.7c-16.3 0-29.6-13.3-29.6-29.6s13.3-29.6 29.6-29.6 29.6 13.3 29.6 29.6-13.2 29.6-29.6 29.6z m0-39.3c-5.3 0-9.6 4.3-9.6 9.6s4.3 9.6 9.6 9.6 9.6-4.3 9.6-9.6-4.3-9.6-9.6-9.6z" fill="#0F53A8" /><path d="M434.9 705m-19.6 0a19.6 19.6 0 1 0 39.2 0 19.6 19.6 0 1 0-39.2 0Z" fill="#89B7F5" /><path d="M434.9 734.7c-16.3 0-29.6-13.3-29.6-29.6s13.3-29.6 29.6-29.6 29.6 13.3 29.6 29.6-13.2 29.6-29.6 29.6z m0-39.3c-5.3 0-9.6 4.3-9.6 9.6s4.3 9.6 9.6 9.6 9.6-4.3 9.6-9.6-4.3-9.6-9.6-9.6z" fill="#0F53A8" /><path d="M518 705m-19.6 0a19.6 19.6 0 1 0 39.2 0 19.6 19.6 0 1 0-39.2 0Z" fill="#89B7F5" /><path d="M518 734.7c-16.3 0-29.6-13.3-29.6-29.6s13.3-29.6 29.6-29.6 29.6 13.3 29.6 29.6-13.2 29.6-29.6 29.6z m0-39.3c-5.3 0-9.6 4.3-9.6 9.6s4.3 9.6 9.6 9.6 9.6-4.3 9.6-9.6-4.3-9.6-9.6-9.6z" fill="#0F53A8" /><path d="M601.1 705m-19.6 0a19.6 19.6 0 1 0 39.2 0 19.6 19.6 0 1 0-39.2 0Z" fill="#89B7F5" /><path d="M601.1 734.7c-16.3 0-29.6-13.3-29.6-29.6s13.3-29.6 29.6-29.6 29.6 13.3 29.6 29.6-13.2 29.6-29.6 29.6z m0-39.3c-5.3 0-9.6 4.3-9.6 9.6s4.3 9.6 9.6 9.6 9.6-4.3 9.6-9.6-4.3-9.6-9.6-9.6z" fill="#0F53A8" /><path d="M684.2 705m-19.6 0a19.6 19.6 0 1 0 39.2 0 19.6 19.6 0 1 0-39.2 0Z" fill="#89B7F5" /><path d="M684.2 734.7c-16.3 0-29.6-13.3-29.6-29.6s13.3-29.6 29.6-29.6 29.6 13.3 29.6 29.6-13.2 29.6-29.6 29.6z m0-39.3c-5.3 0-9.6 4.3-9.6 9.6s4.3 9.6 9.6 9.6 9.6-4.3 9.6-9.6-4.3-9.6-9.6-9.6z" fill="#0F53A8" /><path d="M767.3 705m-19.6 0a19.6 19.6 0 1 0 39.2 0 19.6 19.6 0 1 0-39.2 0Z" fill="#89B7F5" /><path d="M767.3 734.7c-16.3 0-29.6-13.3-29.6-29.6s13.3-29.6 29.6-29.6S797 688.7 797 705s-13.3 29.7-29.7 29.7z m0-39.3c-5.3 0-9.6 4.3-9.6 9.6s4.3 9.6 9.6 9.6 9.6-4.3 9.6-9.6-4.3-9.6-9.6-9.6z" fill="#0F53A8" /></svg>