<?xml version="1.0" encoding="iso-8859-1"?>
<!-- Uploaded to: SVG Repo, www.svgrepo.com, Generator: SVG Repo Mixer Tools -->
<svg height="800px" width="800px" version="1.1" id="Layer_1" xmlns="http://www.w3.org/2000/svg" xmlns:xlink="http://www.w3.org/1999/xlink" 
	 viewBox="0 0 512 512" xml:space="preserve">
<g>
	<path style="fill:#D9433D;" d="M361.244,395.666h-52.378c-10.998,0-19.915-8.917-19.915-19.915s8.917-19.915,19.915-19.915h52.378
		c61.165,0,110.926-49.76,110.926-110.926s-49.761-110.927-110.926-110.927h-52.378c-10.998,0-19.915-8.917-19.915-19.915
		s8.917-19.915,19.915-19.915h52.378C444.371,94.152,512,161.781,512,244.909S444.371,395.666,361.244,395.666z"/>
	<path style="fill:#D9433D;" d="M300.412,468.323H48.154C21.559,468.323,0,446.765,0,420.17V56.953
		c0-7.333,5.944-13.277,13.277-13.277h322.012c7.333,0,13.277,5.944,13.277,13.277V420.17
		C348.566,446.765,327.007,468.323,300.412,468.323z"/>
</g>
<path style="fill:#FF5E5A;" d="M174.283,468.323H48.154C21.559,468.323,0,446.765,0,420.17V56.953
	c0-7.333,5.944-13.277,13.277-13.277h161.006V468.323z"/>
</svg>