<?xml version="1.0" encoding="UTF-8" standalone="no"?>
<!-- Generator: Adobe Illustrator 18.0.0, SVG Export Plug-In . SVG Version: 6.00 Build 0)  -->

<svg
   xmlns:dc="http://purl.org/dc/elements/1.1/"
   xmlns:cc="http://creativecommons.org/ns#"
   xmlns:rdf="http://www.w3.org/1999/02/22-rdf-syntax-ns#"
   xmlns:svg="http://www.w3.org/2000/svg"
   xmlns="http://www.w3.org/2000/svg"
   xmlns:sodipodi="http://sodipodi.sourceforge.net/DTD/sodipodi-0.dtd"
   xmlns:inkscape="http://www.inkscape.org/namespaces/inkscape"
   version="1.1"
   id="Layer_1"
   x="0px"
   y="0px"
   viewBox="0 0 372 310"
   enable-background="new 0 0 372 310"
   xml:space="preserve"
   inkscape:version="0.91 r13725"
   sodipodi:docname="chick.svg"><metadata
   id="metadata23"><rdf:RDF><cc:Work
       rdf:about=""><dc:format>image/svg+xml</dc:format><dc:type
         rdf:resource="http://purl.org/dc/dcmitype/StillImage" /></cc:Work></rdf:RDF></metadata><defs
   id="defs21">
	
	
	
	
	
	
	
</defs><sodipodi:namedview
   pagecolor="#ffffff"
   bordercolor="#666666"
   borderopacity="1"
   objecttolerance="10"
   gridtolerance="10"
   guidetolerance="10"
   inkscape:pageopacity="0"
   inkscape:pageshadow="2"
   inkscape:window-width="1024"
   inkscape:window-height="742"
   id="namedview19"
   showgrid="false"
   inkscape:zoom="1.1575153"
   inkscape:cx="143.6364"
   inkscape:cy="120.44322"
   inkscape:window-x="-4"
   inkscape:window-y="-4"
   inkscape:window-maximized="1"
   inkscape:current-layer="Layer_1" />
<g
   inkscape:groupmode="layer"
   id="layer1"
   inkscape:label="Layer 1" />
<g
   id="g4298"
   transform="translate(140.15401,117.30002)"><g
     transform="translate(273.86246,-14.686631)"
     id="g4291"><path
       id="path4264"
       style="fill:none;fill-rule:evenodd;stroke:#000000;stroke-width:5;stroke-linecap:butt;stroke-linejoin:miter;stroke-miterlimit:4;stroke-dasharray:none;stroke-opacity:1"
       d="m -266.95111,153.63058 c 10.36704,15.55055 10.36704,15.55055 10.36704,15.55055 m -23.32583,-5.18352 c 32.82894,8.6392 32.82894,8.6392 32.82894,8.6392 m 3.45568,-19.00623 c -25.05367,28.50934 -25.05367,28.50934 -25.05367,28.50934"
       inkscape:connector-curvature="0" /><path
       inkscape:connector-curvature="0"
       id="path4288"
       style="fill:none;fill-rule:evenodd;stroke:#000000;stroke-width:5;stroke-linecap:butt;stroke-linejoin:miter;stroke-miterlimit:4;stroke-dasharray:none;stroke-opacity:1"
       d="m -177.10348,186.45952 c 5.18351,-19.00623 5.18351,-19.00623 5.18351,-19.00623 l 0,0 m -18.14231,0 c 19.00623,2.59176 18.14231,1.72784 18.14231,1.72784 m -10.63919,-17.27839 c 11.23095,17.27839 11.23095,18.14231 11.23095,18.14231 m -23.05366,12.09487 c 34.55677,-18.1423 34.55677,-18.1423 34.55677,-18.1423" /></g><rect
     inkscape:transform-center-y="-3.8764657"
     inkscape:transform-center-x="4.8552374"
     transform="matrix(0.81368488,-0.58130622,0.74615185,0.6657758,0,0)"
     y="-37.17551"
     x="-49.185467"
     height="21.695112"
     width="26.680264"
     id="rect4196"
     style="opacity:1;fill:#ffff00;fill-opacity:1;fill-rule:evenodd;stroke:#000000;stroke-width:4.34804201;stroke-miterlimit:4;stroke-dasharray:none;stroke-opacity:1" /><path
     inkscape:connector-curvature="0"
     id="path4170"
     d="m 55.291218,-85.6747 a 107.12602,107.98993 0 0 0 -107.12695,107.990236 107.12602,107.98993 0 0 0 0.39062,8.638672 l -0.39062,0 A 120.94871,119.22088 0 0 0 68.925988,144.99132 120.94871,119.22088 0 0 0 189.61153,30.954208 l -27.625,0 A 107.12602,107.98993 0 0 0 162.41622,22.315536 107.12602,107.98993 0 0 0 55.291218,-85.6747 Z"
     style="opacity:1;fill:#ffff00;fill-opacity:1;fill-rule:evenodd;stroke:#000000;stroke-width:4;stroke-miterlimit:4;stroke-dasharray:none;stroke-opacity:1" /><circle
     r="13.390751"
     cy="-20.449184"
     cx="5.6154814"
     id="path4192"
     style="opacity:1;fill:#000000;fill-opacity:1;fill-rule:evenodd;stroke:none;stroke-opacity:1" /><ellipse
     ry="15.11859"
     rx="21.597986"
     cy="-1.4429547"
     cx="79.480576"
     id="path4194"
     style="opacity:1;fill:#f89694;fill-opacity:1;fill-rule:evenodd;stroke:none;stroke-opacity:1" /><path
     sodipodi:nodetypes="ccc"
     inkscape:connector-curvature="0"
     id="path4211"
     d="m 73.45087,60.364601 c 16.213301,35.434127 56.21802,29.570637 69.11355,5.18352 l 0,0"
     style="fill:none;fill-rule:evenodd;stroke:#000000;stroke-width:5;stroke-linecap:butt;stroke-linejoin:miter;stroke-miterlimit:4;stroke-dasharray:none;stroke-opacity:1" /></g></svg>