<?xml version="1.0" encoding="UTF-8" standalone="no"?>
<!-- Created with Inkscape (http://www.inkscape.org/) -->
<svg xmlns:inkscape="http://www.inkscape.org/namespaces/inkscape" xmlns:rdf="http://www.w3.org/1999/02/22-rdf-syntax-ns#" xmlns="http://www.w3.org/2000/svg" xmlns:xlink="http://www.w3.org/1999/xlink" xmlns:ns1="http://sozi.baierouge.fr" xmlns:cc="http://creativecommons.org/ns#" xmlns:sodipodi="http://sodipodi.sourceforge.net/DTD/sodipodi-0.dtd" xmlns:dc="http://purl.org/dc/elements/1.1/" id="svg2" xml:space="preserve" viewBox="0 0 27.704 28.65" version="1.1" inkscape:version="0.91 r13725">
  <g id="g10" transform="matrix(1.25,0,0,-1.25,0,28.65)">
    <g id="g12">
      <path id="path14" style="fill-rule:evenodd;fill:#ffcc00" d="m13.242 22.158c0.149 0.348 0.391 0.59 0.723 0.723-0.203-0.16-0.395-0.426-0.57-0.801-0.036-0.082-0.09-0.187-0.157-0.32h0.239c0.117 0.082 0.261 0.172 0.433 0.281 0.231 0.16 0.461 0.32 0.695 0.481-0.031-0.055-0.253-0.227-0.66-0.524-0.144-0.078-0.261-0.172-0.351-0.277h0.238c0.059 0.054 0.117 0.105 0.18 0.16 0.265 0.211 0.48 0.371 0.656 0.48-0.004-0.027-0.02-0.054-0.051-0.082 0.172 0.106 0.313 0.161 0.418 0.161-0.465-0.321-0.797-0.559-1.004-0.719 0.078-0.028 0.168-0.039 0.278-0.039 0.086 0.051 0.211 0.105 0.379 0.16 0.445 0.156 0.824 0.223 1.14 0.199-0.242-0.027-0.558-0.121-0.949-0.281-0.109-0.027-0.211-0.067-0.297-0.121 0.133-0.028 0.262-0.051 0.391-0.078 0.089 0.078 0.195 0.16 0.308 0.238 0.258 0.133 0.489 0.199 0.703 0.199-0.367-0.156-0.605-0.265-0.714-0.316-0.086-0.055-0.161-0.094-0.215-0.121 0.234-0.055 0.465-0.121 0.695-0.2 0.289 0.184 0.477 0.293 0.559 0.321 0.398 0.211 0.836 0.316 1.316 0.316-0.406-0.051-0.82-0.183-1.246-0.398-0.172-0.106-0.328-0.188-0.469-0.239 0.348 0 0.652-0.027 0.91-0.082-0.234 0.028-0.504 0.028-0.797 0 0.231-0.078 0.446-0.16 0.653-0.238 0.078 0 0.16 0.012 0.242 0.039 0.168 0.055 0.359 0.094 0.574 0.121 0.219 0.051 0.399 0.094 0.535 0.117-0.062-0.078-0.289-0.171-0.672-0.277-0.085-0.027-0.21-0.082-0.378-0.16 0.125-0.055 0.25-0.121 0.375-0.199 0.14 0.051 0.265 0.078 0.371 0.078 0.406 0.055 0.761 0.039 1.074-0.039-0.371 0-0.789-0.039-1.254-0.121 0.023-0.028 0.051-0.039 0.074-0.039 0.266-0.028 0.492-0.039 0.676-0.039 0.238-0.028 0.367-0.067 0.387-0.122-0.055 0-0.321-0.015-0.805-0.039 0.199-0.136 0.371-0.269 0.516-0.402 0.078 0 0.171-0.012 0.273-0.039 0.418-0.078 0.707-0.227 0.871-0.441l-0.047-0.039c-0.101 0.027-0.191 0.054-0.269 0.082-0.129 0.027-0.289 0.05-0.473 0.078 0.051-0.028 0.102-0.067 0.149-0.121 0.113 0.054 0.257 0.043 0.433-0.039 0.133-0.028 0.231-0.094 0.297-0.2 0.043-0.105 0.047-0.187 0.012-0.242 0.258-0.078 0.429-0.211 0.515-0.398 0.129-0.028 0.235-0.051 0.313-0.078 0.019-0.055 0.039-0.122 0.055-0.204-0.051 0.028-0.114 0.043-0.196 0.043 0.071-0.082 0.172-0.136 0.301-0.16 0.23-0.082 0.348-0.226 0.352-0.441 0.019-0.266 0.058-0.414 0.109-0.442 0.23-0.293 0.344-0.464 0.34-0.519 0.019-0.051-0.004-0.145-0.074-0.277 0.48-0.243 0.75-0.442 0.812-0.602-0.098 0.078-0.359 0.227-0.789 0.441 0.043-0.082 0.113-0.296 0.203-0.64 0.02-0.082 0.039-0.149 0.059-0.199h0.16c0.004 0.027 0.019 0.05 0.051 0.078-0.008-0.051 0-0.106 0.019-0.16-0.027-0.028-0.07-0.04-0.125-0.04h-0.078c0.098-0.32 0.141-0.519 0.129-0.601-0.004-0.051-0.031-0.16-0.074-0.32-0.012-0.079-0.035-0.161-0.071-0.239 0.168-0.16 0.25-0.281 0.239-0.359l-0.004-0.039c0.117-0.137 0.168-0.281 0.148-0.442-0.004-0.054-0.023-0.105-0.058-0.16l-0.043-0.039c-0.012 0.133-0.028 0.227-0.047 0.278-0.016 0.109-0.035 0.187-0.055 0.242-0.023 0-0.039-0.016-0.043-0.039-0.004-0.028 0.024-0.149 0.078-0.364 0.028-0.21 0.047-0.398 0.055-0.558 0.043-0.078 0.086-0.172 0.129-0.281h-0.121c0.019-0.051 0.027-0.106 0.023-0.161-0.011-0.078-0.058-0.16-0.148-0.238-0.031-0.027-0.059-0.055-0.09-0.082l0.141-0.156c0.046-0.082 0.093-0.231 0.148-0.442 0.031-0.183 0.062-0.289 0.086-0.32-0.051 0.055-0.141 0.203-0.27 0.442-0.043 0.078-0.101 0.16-0.171 0.238l-0.016-0.121c-0.004-0.051-0.039-0.227-0.102-0.52 0.047-0.078 0.078-0.16 0.094-0.238 0.25-0.16 0.367-0.281 0.359-0.359-0.007-0.055-0.023-0.082-0.05-0.082l-0.043-0.04c-0.043 0.079-0.141 0.172-0.289 0.282l-0.012-0.121-0.012-0.082c0-0.024-0.043-0.039-0.125-0.039l0.063-0.161c-0.012-0.105-0.047-0.187-0.106-0.238 0.074-0.027 0.137-0.066 0.184-0.121s0.07-0.105 0.062-0.16c-0.004-0.027-0.054-0.121-0.152-0.281l0.008 0.082 0.023 0.199-0.023 0.121c-0.055 0-0.125-0.016-0.207-0.039 0.043-0.109 0.078-0.242 0.113-0.402l-0.004-0.04c-0.047 0.055-0.113 0.188-0.191 0.399-0.004-0.024-0.02-0.039-0.047-0.039l-0.043-0.039c0.023-0.028 0.031-0.055 0.031-0.082-0.008-0.051-0.023-0.078-0.051-0.078h-0.039c0.075-0.028 0.125-0.067 0.145-0.121 0.043-0.079 0.082-0.122 0.105-0.122 0.055 0 0.098 0.016 0.125 0.043l-0.097-0.16c-0.008-0.054 0.015-0.109 0.062-0.16 0.02-0.055 0.028-0.094 0.024-0.121l-0.012-0.121c-0.031-0.051-0.09-0.078-0.168-0.078-0.16 0-0.305 0.039-0.43 0.121 0.043-0.109 0.086-0.203 0.129-0.281 0.047-0.055 0.082-0.106 0.102-0.161l-0.004-0.039c0.023-0.027 0.031-0.066 0.027-0.121l-0.008-0.039-0.019-0.203c-0.016-0.133-0.059-0.25-0.125-0.359l-0.004-0.039c0.094-0.133 0.195-0.282 0.308-0.442-0.148 0.082-0.281 0.203-0.398 0.364-0.121-0.137-0.273-0.204-0.461-0.204-0.055 0-0.094 0.016-0.117 0.043l-0.008-0.082-0.008-0.078c-0.004-0.027 0.008-0.054 0.032-0.082h0.558l0.035-0.039c0.024-0.027 0.032-0.066 0.028-0.121-0.008-0.051-0.207-0.266-0.594-0.641-0.027 0-0.043-0.011-0.047-0.039-0.023-0.214-0.059-0.386-0.098-0.519h-0.121c0.035 0.082 0.067 0.226 0.09 0.441-0.152-0.16-0.285-0.269-0.398-0.32-0.035-0.082-0.078-0.133-0.137-0.16l-0.035 0.039 0.043 0.039c-0.055-0.024-0.098-0.039-0.125-0.039 0.019-0.078 0.027-0.133 0.023-0.16-0.015-0.133-0.066-0.215-0.148-0.239l-0.055-0.48c0.137-0.215 0.254-0.348 0.356-0.402l-0.008-0.039h-0.078c-0.188 0-0.348 0.121-0.481 0.359-0.008-0.078-0.043-0.16-0.105-0.238-0.032-0.055-0.051-0.106-0.059-0.161-0.023-0.187-0.336-0.585-0.937-1.199l-0.047-0.043c0.246-0.183 0.515-0.398 0.808-0.636-0.101 0.05-0.371 0.253-0.812 0.597l-0.356-0.32c0.328-0.16 0.504-0.25 0.528-0.277-0.004-0.028-0.032-0.043-0.086-0.043-0.188 0-0.367 0.066-0.535 0.203-0.243-0.242-0.364-0.375-0.368-0.403l-0.019-0.16c-0.031-0.051-0.106-0.094-0.215-0.121h-0.359l-0.032-0.277c-0.004-0.028-0.019-0.055-0.05-0.082l-0.094-0.117c-0.02 0.05-0.039 0.105-0.059 0.16-0.215 0-0.386 0.011-0.515 0.039 0.132-0.242 0.226-0.453 0.285-0.641l-0.043-0.039c-0.153 0.078-0.274 0.184-0.363 0.32-0.032-0.027-0.086-0.054-0.172-0.082 0.125-0.078 0.226-0.132 0.3-0.16l-0.003-0.039-0.082-0.039c-0.032-0.027-0.114-0.043-0.247-0.043-0.187 0-0.379 0.082-0.574 0.242l-0.019-0.199c-0.043-0.109-0.09-0.187-0.149-0.242h-0.039l0.004 0.043 0.024 0.199-0.126-0.043c-0.035-0.051-0.164-0.144-0.394-0.277 0.02-0.055 0.027-0.106 0.023-0.16 0.075-0.028 0.153-0.067 0.227-0.121h-0.281l0.004 0.039c-0.079 0-0.157 0.027-0.231 0.082-0.027 0-0.043-0.016-0.043-0.039 0.028 0 0.063-0.016 0.113-0.043h-0.199c-0.031-0.024-0.074-0.051-0.129-0.079-0.187 0-0.343 0.028-0.472 0.079-0.094 0.082-0.168 0.136-0.219 0.16h-0.641c-0.008-0.078-0.004-0.145 0.016-0.199h-0.078c-0.055 0-0.078 0.039-0.067 0.121l0.004 0.039c-0.035-0.051-0.074-0.078-0.129-0.078-0.187 0-0.347-0.016-0.484-0.043h-0.121l-0.02-0.161-0.043-0.039h-0.082c0.012 0.082 0.004 0.149-0.015 0.2-0.156 0.027-0.301 0.054-0.43 0.082-0.074 0.05-0.172 0.121-0.297 0.199l-0.008-0.078c0.293-0.215 0.555-0.375 0.782-0.481-0.266 0-0.536 0.078-0.813 0.239-0.043-0.161-0.133-0.239-0.265-0.239-0.028 0-0.09 0.024-0.192 0.078l-0.191 0.082c-0.055 0-0.098-0.027-0.129-0.082-0.031-0.027-0.07-0.039-0.125-0.039-0.16 0-0.266 0.012-0.317 0.039-0.054-0.027-0.097-0.039-0.121-0.039-0.054 0-0.105 0.012-0.156 0.039-0.078 0.028-0.141 0.055-0.191 0.082-0.051 0.024-0.098 0.067-0.145 0.118l0.012 0.121c-0.047 0.054-0.098 0.082-0.149 0.082-0.004-0.028-0.039-0.082-0.101-0.16-0.067-0.137-0.145-0.215-0.227-0.243l0.004 0.039c0.059 0.055 0.11 0.122 0.145 0.204l0.043 0.039c-0.086-0.055-0.188-0.121-0.301-0.2h-0.082l0.031 0.278c-0.027-0.028-0.07-0.051-0.129-0.078l-0.133-0.121c0.02-0.055 0.055-0.106 0.102-0.161 0.078-0.027 0.203-0.093 0.379-0.199l-0.047-0.039c-0.027-0.027-0.098-0.043-0.203-0.043-0.32 0-0.512 0.082-0.574 0.242l-0.035 0.039c0.003 0.028 0.019 0.039 0.046 0.039l0.012 0.122h-0.078c-0.023 0.054-0.059 0.093-0.106 0.121-0.027 0-0.101-0.039-0.214-0.121 0.023-0.028 0.031-0.055 0.031-0.079 0.023-0.027 0.082-0.082 0.18-0.16h0.039c0-0.027-0.059-0.043-0.164-0.043-0.106 0-0.196 0.028-0.27 0.082-0.031-0.027-0.086-0.039-0.164-0.039h-0.121c-0.078 0-0.145 0.012-0.195 0.039l-0.004-0.039c-0.305-0.082-0.485-0.043-0.547 0.117l0.008 0.082h-0.039l-0.004-0.039c-0.36-0.109-0.582-0.187-0.668-0.242l0.008 0.082c0.007 0.051 0.082 0.117 0.226 0.199-0.082 0-0.148 0.012-0.199 0.04 0-0.028-0.016-0.04-0.043-0.04l0.004 0.04h-0.039c-0.024 0.027-0.059 0.054-0.11 0.082-0.195-0.055-0.343-0.082-0.449-0.082h-0.082c-0.027 0-0.039 0.015-0.035 0.039 0.062 0.082 0.109 0.121 0.133 0.121l-0.004-0.039c0.105 0 0.215 0.011 0.324 0.039 0.004 0.027-0.008 0.054-0.031 0.082-0.024 0-0.035 0.011-0.035 0.039-0.16-0.028-0.489-0.082-0.977-0.16-0.027 0-0.051 0.011-0.074 0.039l0.012 0.121c-0.18 0.054-0.395 0.144-0.649 0.277-0.476 0.242-0.742 0.363-0.797 0.363-0.39 0.079-0.652 0.227-0.789 0.438-0.066 0.109-0.09 0.266-0.066 0.48l0.019 0.161c-0.082 0.003-0.132 0.015-0.156 0.039l0.043 0.363c-0.051 0.023-0.102 0.051-0.152 0.078l-0.043-0.039c-0.024 0.027-0.047 0.066-0.067 0.117-0.175-0.133-0.355-0.199-0.543-0.199-0.082 0-0.144 0.016-0.195 0.043l-0.035 0.039c0.215 0.027 0.41 0.078 0.578 0.16h-0.039l-0.356 0.039c-0.054 0-0.078 0.012-0.078 0.039 0.09 0.082 0.188 0.121 0.297 0.121-0.023 0.028-0.062 0.051-0.113 0.078l-0.035 0.043c-0.082-0.027-0.164-0.054-0.25-0.082h-0.039c-0.028 0-0.039 0.016-0.035 0.039 0.003 0.028 0.062 0.067 0.175 0.122-0.339 0.293-0.5 0.519-0.484 0.679 0.016 0.133 0.055 0.227 0.113 0.281 0.117 0.079 0.379 0.161 0.789 0.239l0.012 0.121c-0.082-0.027-0.164-0.055-0.246-0.078h-0.043c-0.141-0.082-0.254-0.137-0.336-0.16-0.031-0.028-0.059-0.043-0.086-0.043-0.055-0.024-0.078 0.015-0.066 0.121 0.011 0.105 0.285 0.265 0.816 0.48l0.004 0.039c0.008 0.055 0.027 0.121 0.063 0.199-0.11-0.023-0.204-0.039-0.286-0.039-0.035-0.078-0.082-0.16-0.148-0.238l-0.035 0.039c0.031 0.028 0.066 0.094 0.105 0.199-0.082 0-0.16 0.016-0.238 0.039h-0.078l-0.031 0.082c0.058 0.028 0.113 0.055 0.168 0.079 0.007 0.054 0.043 0.121 0.105 0.203-0.023 0.023-0.027 0.105-0.012 0.238 0.047 0.426 0.2 0.813 0.453 1.16 0.032 0.028 0.047 0.067 0.055 0.121-0.086-0.054-0.16-0.109-0.219-0.16-0.031-0.027-0.043-0.016-0.035 0.039 0 0.028 0.106 0.121 0.313 0.281h-0.043c0-0.027-0.016-0.043-0.043-0.043l0.019 0.161c0.012 0.109 0.032 0.16 0.059 0.16l0.074-0.039c0.055 0.027 0.125 0.039 0.203 0.039l0.016 0.121-0.063 0.16c0.004 0.027-0.007 0.039-0.035 0.039h-0.078l-0.008-0.039 0.117-0.039h-0.16c-0.027 0-0.039 0.012-0.035 0.039l0.004 0.039c0.004 0.027 0.047 0.066 0.133 0.121 0.008 0.055 0.043 0.133 0.109 0.238 0.067 0.137 0.106 0.215 0.11 0.243l-0.063 0.16c-0.047 0.078-0.066 0.133-0.062 0.16 0.035 0.32 0.129 0.641 0.269 0.961 0.074 0.156 0.211 0.426 0.414 0.797 0.133 0.242 0.242 0.48 0.324 0.722-0.14-0.054-0.293-0.109-0.46-0.16l0.003 0.039c0.086 0.051 0.258 0.145 0.516 0.282 0.027 0.027 0.043 0.05 0.047 0.078l0.004 0.039c0.086 0.269 0.156 0.535 0.215 0.801-0.028 0-0.043-0.012-0.047-0.04h-0.039l0.008 0.079c0.007 0.054 0.043 0.109 0.101 0.16 0 0.242 0.02 0.402 0.055 0.48l0.008 0.082c0.011 0.078 0.109 0.254 0.3 0.52-0.082-0.028-0.152-0.039-0.203-0.039l0.004 0.039c0.004 0.027 0.113 0.078 0.336 0.16 0.07 0.133 0.164 0.238 0.277 0.32-0.074 0.024-0.14 0.051-0.191 0.078-0.02 0.055-0.027 0.106-0.02 0.161 0.141 0.054 0.293 0.121 0.465 0.199-0.086-0.028-0.168-0.039-0.246-0.039-0.054 0-0.105 0.015-0.156 0.039h-0.039l0.019 0.16c0.012 0.109 0.075 0.199 0.192 0.281 0.168 0.078 0.441 0.133 0.816 0.16 0.059 0.028 0.102 0.051 0.129 0.078-0.019 0.055-0.027 0.11-0.019 0.161-0.118-0.079-0.203-0.145-0.262-0.2l0.008 0.082 0.008 0.079h-0.2c-0.027 0-0.035 0.027-0.031 0.082 0.02 0.16 0.192 0.277 0.524 0.359l0.003 0.039c-0.023 0.027-0.035 0.055-0.031 0.078l0.043 0.043 0.016 0.117 0.004 0.043c0.035 0.078 0.097 0.145 0.183 0.199 0.086 0.055 0.2 0.122 0.344 0.2 0.012 0.105 0.047 0.187 0.106 0.242l0.046 0.039-0.035 0.039c-0.082-0.027-0.14-0.039-0.164-0.039-0.16 0-0.254 0.012-0.277 0.039 0.097 0.133 0.254 0.238 0.476 0.32 0.036 0.051 0.078 0.094 0.137 0.121 0.141 0.079 0.277 0.106 0.406 0.079 0.032 0.027 0.047 0.054 0.051 0.082h-0.32c-0.16 0-0.266 0.011-0.317 0.039-0.027-0.028-0.039-0.016-0.035 0.039 0.004 0.027 0.032 0.039 0.086 0.039 0.031 0.027 0.18 0.054 0.449 0.082l0.004 0.039h-0.039c-0.074 0.055-0.105 0.121-0.097 0.199 0.023 0.188 0.101 0.32 0.246 0.402 0.082 0.024 0.222 0.067 0.414 0.118 0.008 0.054 0.035 0.093 0.093 0.121 0.043 0.133 0.126 0.265 0.247 0.398l0.003 0.043c-0.07 0.078-0.101 0.16-0.089 0.238l0.019 0.2h0.082c0.039-0.133 0.094-0.239 0.164-0.321l0.09 0.082c0.117 0.106 0.262 0.215 0.434 0.321-0.074 0.05-0.121 0.093-0.145 0.121 0.055 0.023 0.086 0.051 0.09 0.078 0.074-0.055 0.137-0.094 0.184-0.121l0.089 0.082c-0.125 0.078-0.207 0.16-0.25 0.238l-0.035 0.039 0.082 0.043 0.114-0.082c0.023-0.027 0.058-0.051 0.109-0.078 0.027 0 0.066-0.016 0.117-0.039 0.031 0.051 0.063 0.09 0.094 0.117 0.027 0 0.039 0.016 0.043 0.039-0.106 0-0.168 0.055-0.18 0.16 0.039 0.137 0.063 0.227 0.071 0.282 0.003 0.027 0.019 0.039 0.043 0.039l-0.032-0.278c0.02-0.082 0.051-0.148 0.098-0.203 0.117 0.082 0.23 0.16 0.348 0.242l-0.079 0.36c0.047 0.187 0.079 0.332 0.09 0.441h0.039c-0.011-0.348-0.007-0.547 0.012-0.601l-0.012-0.122c0.059 0.055 0.129 0.094 0.211 0.122l0.008 0.039c0.059 0.054 0.129 0.093 0.211 0.121l0.004 0.039c0.008 0.054 0.059 0.136 0.148 0.242 0.09 0.078 0.18 0.144 0.266 0.199-0.047 0.055-0.07 0.106-0.062 0.16 0.011 0.106 0.035 0.188 0.066 0.239l0.023 0.203h0.082c0.036-0.16 0.161-0.348 0.375-0.563 0.11 0.028 0.219 0.067 0.332 0.121-0.046 0.051-0.082 0.106-0.101 0.16-0.106 0.239-0.153 0.415-0.141 0.52 0.035 0.055 0.051 0.094 0.055 0.121 0.023-0.266 0.101-0.508 0.238-0.723l0.028 0.243c0.003 0.05-0.004 0.093-0.028 0.121h0.039l0.016 0.117h0.078c0.023-0.024 0.035-0.066 0.027-0.117 0.02-0.055 0.075-0.16 0.164-0.321 0.086 0.051 0.184 0.094 0.293 0.118-0.027 0-0.039 0.015-0.035 0.043-0.137 0.211-0.199 0.359-0.187 0.437 0 0.027 0.019 0.066 0.05 0.121 0.036 0.055 0.067 0.094 0.094 0.121l-0.004-0.043-0.007-0.078c-0.008-0.055 0.043-0.215 0.144-0.48 0.023-0.028 0.043-0.067 0.066-0.121 0.055 0.027 0.125 0.054 0.207 0.082-0.023 0.027-0.042 0.066-0.066 0.121 0.09 0.051 0.25 0.078 0.492 0.078l0.071-0.078-0.004-0.043c0.027 0.027 0.07 0.043 0.125 0.043-0.114 0.183-0.242 0.465-0.387 0.84l0.051 0.078c0.246 0.054 0.418-0.067 0.519-0.36 0.035-0.132 0.071-0.293 0.106-0.48l-0.008-0.039c0.109 0 0.23 0.012 0.367 0.039-0.058 0.187-0.082 0.332-0.07 0.441l0.019 0.16c0.032 0.051 0.063 0.094 0.094 0.118-0.031-0.266-0.019-0.504 0.035-0.719h0.039l0.016 0.121c0.055 0.238 0.105 0.574 0.156 1h0.078l0.086 0.039c0.024-0.027 0.028-0.094 0.016-0.199-0.004-0.055-0.047-0.293-0.121-0.723l-0.028-0.238h0.399c0.035 0.082 0.058 0.172 0.074 0.281h0.039l-0.031-0.281h0.199c0.082 0.238 0.137 0.375 0.164 0.398zm5.723-2.758 0.211-0.242c0.101-0.05 0.23-0.093 0.386-0.117-0.039 0.106-0.121 0.199-0.246 0.277-0.097 0.082-0.214 0.11-0.351 0.082zm0.965-1h0.078l0.047 0.04h-0.082l-0.043-0.04zm-0.434 0.399c0.051 0 0.117-0.012 0.195-0.039h0.121l0.122 0.039c-0.071 0.082-0.172 0.109-0.309 0.082-0.059-0.027-0.102-0.055-0.129-0.082zm0.293-0.559c0.027 0 0.059 0.012 0.086 0.039h-0.078l-0.008-0.039zm0.402-0.679c0.075-0.055 0.137-0.106 0.184-0.161 0.027 0.028 0.059 0.04 0.082 0.04 0.086 0.054 0.223 0.066 0.406 0.039h0.039l0.016 0.121c0.012 0.105-0.016 0.215-0.086 0.32-0.066 0.105-0.18 0.172-0.336 0.199 0.051-0.027 0.102-0.066 0.149-0.121 0.011-0.105 0.043-0.199 0.085-0.277h-0.039c-0.003-0.028-0.031-0.039-0.086-0.039 0.028 0 0.04-0.016 0.036-0.043h-0.039c-0.055 0-0.106 0.015-0.157 0.043l-0.007-0.082h-0.282l0.035-0.039zm0.594-0.403 0.246 0.043c-0.047 0.051-0.086 0.078-0.109 0.078l-0.137-0.121zm-0.066 0.121 0.09 0.082h-0.278c0.098-0.054 0.164-0.082 0.188-0.082zm0.336-0.558c0.031 0.027 0.074 0.054 0.129 0.078l0.004 0.043c-0.047 0.051-0.11 0.078-0.188 0.078 0.02-0.055 0.039-0.105 0.059-0.16-0.051 0.027-0.114 0.055-0.188 0.082 0.024-0.027 0.059-0.067 0.106-0.121h0.078zm-0.473-0.281c-0.004-0.028 0.008-0.055 0.031-0.079h0.121l0.012 0.118c-0.062-0.004-0.117-0.016-0.164-0.039zm0.715 0.281c-0.027 0-0.059-0.028-0.09-0.082h-0.039c0.047-0.028 0.086-0.039 0.113-0.039l0.016 0.121zm-0.106-0.563c0.047-0.05 0.094-0.105 0.141-0.16 0.047-0.051 0.082-0.117 0.098-0.199 0.004 0.055 0 0.121-0.016 0.199-0.035 0.16-0.09 0.27-0.164 0.32-0.004-0.023 0.008-0.05 0.031-0.078h-0.082l-0.008-0.082zm0.157-0.718c-0.078 0-0.137-0.012-0.164-0.04h0.039l-0.004-0.039 0.086 0.039c0.078 0 0.133 0.012 0.164 0.04h-0.121zm-0.133 0.242h0.082c-0.047 0.051-0.109 0.105-0.184 0.16l-0.004-0.043 0.106-0.117zm0.32-1.043c-0.074 0.054-0.148 0.094-0.226 0.121l-0.008-0.078 0.301-0.16 0.007 0.078c0.004 0.027-0.019 0.054-0.07 0.082l-0.004-0.043zm0.016 0.121c0.047-0.027 0.086-0.055 0.109-0.078l0.016 0.117c0.004 0.055 0 0.133-0.016 0.242-0.012 0.106-0.031 0.184-0.051 0.238-0.058-0.054-0.117-0.093-0.175-0.121h-0.039c0.066-0.133 0.113-0.199 0.136-0.199l0.035-0.039-0.004-0.039-0.011-0.121zm-0.262-0.16h0.063c-0.024 0.011-0.043 0.023-0.055 0.039l-0.008-0.039zm-0.008-0.078c0.051-0.028 0.102-0.055 0.153-0.082h0.039c-0.047 0.054-0.11 0.093-0.188 0.121l-0.004-0.039zm-0.058-0.161c-0.004-0.027-0.02-0.054-0.047-0.082 0.101-0.027 0.203-0.066 0.304-0.121l0.004 0.043c-0.05 0.024-0.113 0.067-0.187 0.117-0.024 0-0.051 0.016-0.074 0.043zm-0.059-0.16 0.07-0.082c0.024-0.027 0.047-0.051 0.071-0.078 0.031 0.024 0.062 0.051 0.09 0.078-0.075 0.055-0.149 0.094-0.227 0.121l-0.004-0.039zm0.371-0.242-0.051-0.117 0.235-0.043 0.004 0.043c-0.02 0.051-0.055 0.09-0.106 0.117h-0.082zm-0.07-0.277c0.019-0.055 0.055-0.094 0.105-0.121 0.004 0.027 0.02 0.05 0.051 0.078l-0.035 0.043h-0.121zm0.137-0.203c-0.032-0.024-0.047-0.067-0.055-0.118 0.07-0.109 0.172-0.269 0.305-0.48l0.003 0.039c0.004 0.027-0.023 0.121-0.085 0.281-0.063 0.16-0.09 0.278-0.079 0.36l-0.089-0.082zm-0.207-0.758c0.07-0.082 0.14-0.149 0.214-0.199 0.004 0.027 0.02 0.039 0.047 0.039-0.078 0.027-0.152 0.078-0.222 0.16h-0.039zm0.14-0.52c0.047-0.027 0.086-0.066 0.106-0.121 0.179 0.16 0.222 0.305 0.129 0.442 0-0.028-0.02-0.055-0.047-0.082 0.023-0.028 0.047-0.04 0.074-0.04-0.039-0.105-0.102-0.187-0.188-0.242-0.023 0.028-0.05 0.043-0.074 0.043zm-0.43-0.601 0.012 0.121c-0.015 0.078-0.023 0.133-0.019 0.16-0.024 0.023-0.036 0.051-0.032 0.078l-0.031-0.277 0.07-0.082zm0.348 0.242h-0.039c-0.004-0.027-0.019-0.043-0.047-0.043l0.004 0.043h-0.039l-0.113 0.039-0.012-0.082-0.023-0.199 0.035-0.039 0.285 0.039 0.023 0.199 0.008 0.082c-0.023 0-0.055-0.016-0.082-0.039zm-0.008-0.402h-0.16c0.047-0.055 0.094-0.122 0.137-0.2l0.023 0.2zm-0.453-0.801c0.024-0.028 0.051-0.051 0.074-0.078 0.024 0 0.067 0.011 0.122 0.039-0.047 0.027-0.098 0.066-0.145 0.121-0.027 0-0.043-0.016-0.043-0.039l-0.008-0.043zm0.086-0.321 0.106-0.117c-0.004-0.027 0.004-0.066 0.027-0.121 0.105 0 0.176 0.028 0.207 0.078 0.031 0.028 0.035 0.067 0.016 0.121l0.015 0.161h-0.039c-0.078 0-0.176-0.028-0.289-0.079l-0.043-0.043zm0.242-0.32-0.086-0.039 0.036-0.039 0.003 0.039 0.047 0.039zm-0.222-0.199c0.027 0.027 0.058 0.043 0.082 0.043 0.004 0.023-0.008 0.039-0.035 0.039l0.007 0.039c-0.023 0.027-0.039 0.027-0.043 0h-0.039l-0.004-0.039c0.024-0.027 0.036-0.055 0.032-0.082zm-0.43-0.238c-0.023 0.027-0.031 0.05-0.031 0.078-0.012-0.043-0.032-0.098-0.059-0.16h0.082l0.008 0.082zm0.27-0.442c-0.004-0.027-0.02-0.066-0.055-0.121 0.047-0.051 0.109-0.105 0.183-0.156h0.2c0.023-0.027 0.039 0 0.05 0.078 0.004 0.055-0.015 0.105-0.062 0.16s-0.152 0.078-0.313 0.078l-0.003-0.039zm-0.051 0.242c0.023-0.027 0.047-0.066 0.066-0.121h0.238c-0.089 0.133-0.191 0.172-0.304 0.121zm0.121 0.719c-0.016 0.078-0.024 0.145-0.016 0.199-0.027 0-0.054-0.011-0.086-0.039 0.024-0.054 0.055-0.105 0.102-0.16zm-0.231-1.32c-0.027 0-0.039 0.015-0.035 0.039l-0.004-0.039h0.039zm-0.25-0.762c-0.023 0-0.05-0.012-0.082-0.039-0.007-0.051 0.004-0.094 0.028-0.117-0.032-0.027-0.051-0.082-0.059-0.16-0.008-0.055-0.066-0.082-0.172-0.082 0.024-0.028 0.035-0.051 0.031-0.078 0.11 0.027 0.239 0.105 0.387 0.238 0.004 0.027-0.008 0.055-0.031 0.082 0.004 0.023-0.004 0.051-0.027 0.078l-0.075 0.078zm0.161 0h0.082l0.089 0.082h-0.082c-0.027-0.027-0.058-0.039-0.082-0.039l-0.007-0.043zm0.101-0.156c0.027 0 0.043 0.012 0.047 0.039h-0.082l0.035-0.039zm-1.238-1.043c-0.063-0.078-0.113-0.16-0.149-0.238h0.082c0.004 0.05 0.024 0.093 0.051 0.121 0.031 0.023 0.063 0.066 0.094 0.117h-0.078zm0.336-0.199-0.035 0.039-0.024-0.199 0.047 0.039c0.09 0.082 0.133 0.136 0.137 0.16-0.055-0.024-0.098-0.039-0.125-0.039zm-0.285-0.039c0.023-0.028 0.05-0.039 0.078-0.039l0.035-0.043 0.015 0.16c-0.054-0.024-0.097-0.051-0.128-0.078zm1.082 1.039c-0.055-0.028-0.086-0.051-0.09-0.078 0.086 0.05 0.144 0.093 0.176 0.117h-0.043c-0.024 0-0.039-0.012-0.043-0.039zm-0.172-0.801c0.027 0.027 0.097 0.055 0.207 0.082 0.035 0.051 0.051 0.094 0.054 0.117h-0.32c0.02-0.051 0.039-0.117 0.059-0.199zm-0.242 0c0-0.024 0.011-0.039 0.035-0.039h0.043c0.023 0 0.027 0.015 0.004 0.039 0.003 0.027-0.008 0.055-0.032 0.082-0.004-0.027-0.019-0.055-0.05-0.082zm0.019-0.199-0.016-0.121c0.032 0.054 0.051 0.093 0.055 0.121h-0.039zm-0.152-0.282 0.027 0.243c-0.086-0.055-0.16-0.106-0.219-0.161-0.035-0.054-0.062-0.093-0.093-0.121l-0.012-0.078-0.016-0.16 0.223 0.199 0.09 0.078zm-0.883 0c-0.043-0.132-0.109-0.25-0.199-0.359 0.023-0.027 0.031-0.051 0.031-0.078l-0.024-0.199c0.028 0 0.051-0.016 0.075-0.043 0.051-0.028 0.09-0.039 0.117-0.039l0.027 0.242c-0.023 0.023-0.047 0.066-0.066 0.117l0.027 0.242 0.012 0.117zm-0.227-0.918c0.02-0.082 0.051-0.16 0.094-0.242 0.024-0.023 0.047-0.066 0.067-0.117l0.035 0.32c-0.047 0.024-0.086 0.051-0.11 0.079-0.023 0.027-0.047 0.039-0.074 0.039l-0.012-0.079zm0.578 0.481 0.004 0.039-0.043-0.039h0.039zm-0.726-1.082c-0.027 0-0.039-0.012-0.043-0.039l-0.004-0.039 0.082 0.039 0.012 0.082c-0.028 0-0.043-0.016-0.047-0.043zm-0.473 0.043 0.004 0.039-0.047-0.039-0.004-0.043 0.036-0.039 0.011 0.082zm0.282 0.359 0.011 0.117c-0.027-0.023-0.062-0.066-0.094-0.117h0.083zm-0.606-0.722c-0.062-0.079-0.137-0.161-0.227-0.239 0.024-0.027 0.063-0.039 0.114-0.039 0.066 0.106 0.105 0.199 0.113 0.278zm0.242-0.321c0.039 0.11 0.063 0.188 0.071 0.242l-0.036 0.04c-0.043-0.133-0.066-0.227-0.074-0.282h0.039zm-2.906-1.957c-0.027-0.027-0.043-0.054-0.047-0.082l-0.004-0.039c0.028 0.028 0.055 0.039 0.082 0.039l0.012 0.082h-0.043zm-0.902-0.562c-0.024 0.027-0.047 0.054-0.071 0.082l-0.004-0.039 0.075-0.043zm0.48 0c0.121-0.106 0.231-0.184 0.332-0.239 0.106 0 0.176 0.028 0.207 0.079 0.031 0.027 0.035 0.066 0.016 0.121l-0.035 0.039c-0.02 0.082-0.09 0.148-0.219 0.203-0.137-0.055-0.223-0.082-0.246-0.082-0.031-0.027-0.063-0.067-0.094-0.121h0.039zm1.223 0.562 0.035-0.043 0.012 0.082-0.047-0.039zm-0.137 0.199c-0.004-0.027 0.008-0.054 0.031-0.082l0.086 0.043c-0.051 0.024-0.09 0.039-0.117 0.039zm0.133 0.122c-0.024 0.027-0.027 0.078-0.02 0.16-0.086-0.055-0.16-0.11-0.218-0.16l0.035-0.043h0.281c-0.023 0.027-0.051 0.043-0.078 0.043zm-0.629-0.282c0.027 0.028 0.043 0.051 0.047 0.078-0.028 0-0.055-0.011-0.082-0.039l0.035-0.039zm0.211 0.121c-0.094-0.136-0.156-0.203-0.18-0.203l-0.047-0.039c0.168 0.055 0.293 0.094 0.375 0.121-0.074 0.051-0.109 0.094-0.105 0.121h-0.043zm0.019-0.519h0.442c-0.07 0.078-0.141 0.172-0.207 0.277-0.059-0.051-0.156-0.094-0.293-0.121-0.031-0.023-0.07-0.039-0.125-0.039l0.035-0.039c0.023-0.027 0.035-0.055 0.031-0.078h0.117zm2.348 1.957c-0.023 0.027-0.047 0.066-0.066 0.121-0.032-0.055-0.078-0.094-0.133-0.121h0.199zm-0.391-0.277c0.016-0.082 0.039-0.122 0.067-0.122 0.105 0 0.207 0.067 0.301 0.2h-0.399l0.031-0.078zm-0.05 0.277h0.043c0.066 0.109 0.117 0.199 0.152 0.281-0.078 0.028-0.137-0.015-0.176-0.121l-0.004-0.039-0.015-0.121zm-0.028-0.598h-0.078c-0.004-0.027-0.023-0.054-0.051-0.082l-0.05-0.078c-0.102 0.024-0.172 0.106-0.211 0.238-0.028 0-0.051 0.016-0.075 0.039l-0.011-0.078c0.023-0.027 0.062-0.054 0.113-0.082 0.098-0.078 0.168-0.144 0.215-0.199 0.082 0 0.121 0.016 0.125 0.039l0.023 0.203zm-0.847-0.082h-0.082c-0.008-0.078-0.032-0.172-0.071-0.277 0.051-0.027 0.098-0.055 0.149-0.082 0.121-0.106 0.195-0.16 0.222-0.16 0.055 0 0.122 0.027 0.207 0.082l0.09 0.078-0.035 0.039c-0.121 0.109-0.203 0.199-0.246 0.281-0.023 0.028-0.047 0.067-0.066 0.121-0.059-0.027-0.114-0.054-0.168-0.082zm0.382 0.199 0.008 0.082c-0.023-0.019-0.047-0.046-0.07-0.082h0.062zm-0.281-1.039 0.008 0.082c-0.023 0.024-0.031 0.051-0.031 0.079h-0.078c0.043-0.079 0.066-0.133 0.062-0.161l-0.015-0.121c0.027 0 0.043 0.016 0.046 0.043l0.008 0.078zm-0.34 0.161-0.035-0.282h0.121c0.004 0.028 0.032 0.043 0.086 0.043l0.008 0.078c0.004 0.028-0.019 0.082-0.062 0.161h-0.118zm-2.207-1.079c-0.035 0.161-0.062 0.25-0.086 0.278-0.109-0.028-0.222-0.067-0.336-0.117 0.079-0.028 0.141-0.082 0.184-0.161 0.117-0.136 0.172-0.242 0.16-0.32h0.121c-0.015 0.078-0.031 0.184-0.043 0.32zm-0.449-0.082c-0.047 0.055-0.109 0.094-0.187 0.121 0.023-0.054 0.043-0.105 0.062-0.16 0.047-0.054 0.113-0.082 0.192-0.082-0.02 0.055-0.043 0.094-0.067 0.121zm-0.515 0.039 0.003 0.043-0.043-0.043c0.016-0.007 0.043-0.019 0.075-0.039-0.016 0.012-0.028 0.024-0.035 0.039zm0.046-0.277c-0.043 0.078-0.105 0.117-0.183 0.117-0.008-0.05 0.011-0.105 0.062-0.16 0.039 0.024 0.082 0.035 0.121 0.043zm0.328 0.039c-0.117 0.031-0.203 0.07-0.269 0.121l0.109-0.121c0.094-0.082 0.164-0.172 0.207-0.281 0.106 0 0.176 0.016 0.203 0.043l0.016 0.117c-0.125 0.082-0.211 0.133-0.262 0.16l-0.004-0.039zm-0.148-0.238c-0.066 0.09-0.109 0.152-0.141 0.18-0.015-0.02-0.043-0.039-0.085-0.063 0.046-0.051 0.109-0.094 0.183-0.117h0.043zm0.098-0.203c-0.082-0.024-0.172-0.012-0.278 0.043 0.051-0.032 0.09-0.059 0.11-0.082h0.082c0.078 0 0.105 0.015 0.086 0.039zm0.347-0.078 0.016 0.121c-0.031-0.028-0.059-0.043-0.086-0.043l0.07-0.078zm-1.125 0.64 0.036-0.043 0.117-0.039 0.011 0.121c-0.054 0-0.105-0.015-0.164-0.039zm-0.449-0.082c-0.031-0.027-0.07-0.039-0.125-0.039-0.039-0.105-0.062-0.199-0.07-0.281l0.402 0.043c-0.101 0.023-0.16 0.09-0.176 0.199-0.023 0.024-0.035 0.051-0.031 0.078zm-0.574-0.121 0.07-0.078c0.074-0.055 0.125-0.094 0.149-0.121h0.039c0.008 0.082 0.031 0.16 0.066 0.242-0.109-0.027-0.219-0.043-0.324-0.043zm-0.246-0.039c-0.051 0-0.106-0.012-0.164-0.039 0.023-0.027 0.047-0.066 0.066-0.121 0.02-0.051 0.059-0.094 0.106-0.117h0.203c-0.024 0.023-0.098 0.078-0.223 0.16l0.012 0.117zm-1.293-0.48c-0.059-0.024-0.164-0.039-0.324-0.039-0.055 0-0.094 0.015-0.118 0.039 0.02-0.051 0.098-0.094 0.227-0.118 0.105 0 0.18 0.039 0.215 0.118zm0.043 0.363h-0.082c0.023-0.027 0.047-0.055 0.07-0.082l0.012 0.082zm0.601 0.039h-0.039c-0.078 0-0.175-0.016-0.285-0.039 0.055 0 0.106-0.016 0.156-0.043 0.149-0.106 0.25-0.145 0.305-0.117-0.074 0.051-0.121 0.105-0.141 0.16l0.004 0.039zm-7.597 13.879c0.16 0 0.324 0.039 0.496 0.121 0.027 0.027 0.07 0.051 0.129 0.078 0.027 0.027 0.058 0.066 0.094 0.121-0.055 0-0.153-0.027-0.29-0.082-0.222-0.051-0.359-0.105-0.418-0.156l-0.011-0.082zm-0.278-1.36-0.003-0.039c0.082 0 0.191 0.039 0.335 0.118 0.082 0.027 0.204 0.043 0.364 0.043 0.004 0.027 0.019 0.05 0.047 0.078l-0.329-0.078c-0.132 0-0.21 0.011-0.234 0.039 0.055 0.027 0.18 0.066 0.375 0.121h0.039c-0.047 0.051-0.097 0.093-0.148 0.117h-0.16c-0.051 0-0.106-0.012-0.165-0.039-0.027-0.027-0.042-0.055-0.046-0.078-0.039-0.11-0.063-0.203-0.075-0.282zm-0.234-0.64c0.035 0.082 0.09 0.187 0.16 0.32l-0.039 0.039c-0.055-0.027-0.101-0.094-0.14-0.199-0.036-0.078-0.059-0.145-0.063-0.199 0.027 0.027 0.059 0.039 0.082 0.039zm0.559 0.32c-0.032-0.027-0.059-0.055-0.09-0.082h0.082c0 0.027 0.015 0.043 0.043 0.043 0.004 0.024-0.008 0.039-0.035 0.039zm-0.071 0.078c-0.027 0-0.05 0.016-0.074 0.043l-0.051-0.082c-0.004-0.027 0.008-0.051 0.032-0.078l0.089 0.078 0.004 0.039zm0.129 0.082c0.004 0.028 0.02 0.039 0.043 0.039 0.035 0.051 0.063 0.079 0.09 0.082h-0.039l-0.129-0.082 0.035-0.039zm-0.406-0.398c0.004 0.023 0.02 0.039 0.043 0.039 0.004 0.027 0.019 0.051 0.051 0.078h-0.039c-0.032-0.027-0.047-0.066-0.055-0.117zm-0.094-0.121c-0.031-0.028-0.047-0.067-0.054-0.121 0.132 0 0.257 0.027 0.371 0.082h0.039l0.019 0.16h-0.043c-0.051 0-0.094-0.016-0.125-0.043-0.058-0.051-0.09-0.106-0.097-0.16h-0.039c-0.024 0.027-0.036 0.054-0.032 0.082 0.004 0.023 0.02 0.035 0.047 0.039-0.031-0.004-0.058-0.016-0.086-0.039zm-0.054-0.481h0.117c0.027 0 0.043 0.012 0.047 0.039 0.004 0.055 0.039 0.106 0.097 0.161-0.078 0-0.136-0.012-0.164-0.04-0.031-0.027-0.074-0.054-0.129-0.082-0.004-0.023 0.008-0.05 0.032-0.078zm-0.395-0.64 0.09 0.082h-0.082l-0.008-0.082zm0.246 0.398c0.031 0.055 0.078 0.094 0.133 0.121l-0.113 0.039c-0.082 0-0.145-0.078-0.188-0.238l-0.047-0.039c0.059 0.027 0.129 0.066 0.215 0.117zm0.207-0.277c-0.027 0-0.055-0.016-0.086-0.039h0.043c0.024 0 0.055 0.011 0.082 0.039h-0.039zm0.086 0.039c0.113 0.082 0.231 0.16 0.348 0.238-0.051 0.027-0.074 0.055-0.071 0.082-0.062-0.055-0.117-0.094-0.175-0.121-0.036-0.078-0.071-0.144-0.102-0.199zm6.82 9.558c-0.019 0.028-0.031 0.055-0.027 0.082-0.008-0.054-0.027-0.093-0.055-0.121 0.028 0 0.055 0.016 0.082 0.039zm-0.984-0.238c-0.125-0.133-0.219-0.254-0.281-0.359 0.14 0.078 0.281 0.16 0.426 0.238-0.051 0.027-0.098 0.066-0.145 0.121zm-3.152-3.039c-0.051 0.024-0.078 0.024-0.078 0l0.035-0.043h0.039l0.004 0.043zm0.226-0.121c0.004 0.051 0.024 0.098 0.055 0.141-0.031-0.043-0.063-0.09-0.094-0.141h0.039zm-0.898-0.84c-0.051 0-0.106-0.015-0.164-0.039h0.16l0.004 0.039zm1.527 1.801 0.008 0.039c-0.031-0.027-0.047-0.055-0.051-0.078-0.031-0.055-0.066-0.109-0.098-0.16 0.063 0.078 0.11 0.144 0.141 0.199zm-1.992-2.723-0.043-0.039-0.008-0.039c0.137 0.074 0.227 0.129 0.281 0.16-0.101-0.054-0.179-0.082-0.23-0.082zm-0.586-0.558-0.004-0.039c0.106 0 0.227 0.011 0.363 0.039 0.012 0.082 0.032 0.148 0.067 0.199h-0.043l-0.336-0.16-0.047-0.039zm0.422-0.52h-0.039c-0.028 0-0.145-0.082-0.348-0.238 0.086 0.051 0.199 0.117 0.34 0.199l0.047 0.039zm-0.582-0.519c-0.141-0.082-0.281-0.133-0.418-0.161 0.055 0 0.148 0.012 0.285 0.04l0.133 0.121zm0.328-0.641 0.043 0.039c-0.055-0.027-0.113-0.066-0.172-0.117 0.055 0.023 0.098 0.051 0.129 0.078zm-0.508-0.238 0.203 0.039 0.004 0.039c-0.082-0.027-0.152-0.055-0.207-0.078zm-0.328-2.481c-0.031-0.027-0.074-0.054-0.129-0.082 0.027 0 0.055 0.016 0.086 0.039l0.043 0.043zm-0.777-9.519h0.121c0.031 0.051 0.09 0.105 0.176 0.16h-0.079c-0.054-0.027-0.113-0.055-0.168-0.082l-0.05-0.078zm-0.004 0.316c-0.028 0-0.039-0.012-0.043-0.039-0.235-0.184-0.371-0.305-0.403-0.359 0.055 0 0.094-0.012 0.118-0.039 0.023-0.028 0.047-0.039 0.074-0.039-0.024 0.027-0.031 0.078-0.024 0.16 0.008 0.051 0.055 0.105 0.141 0.16 0.027 0.023 0.102 0.066 0.215 0.117-0.024 0.027-0.051 0.039-0.078 0.039zm-0.145 0.121c-0.047 0.024-0.09 0.051-0.133 0.082 0.043-0.031 0.071-0.058 0.094-0.082h0.039zm-0.058 8.52c-0.024 0-0.051 0.015-0.075 0.043 0.024-0.028 0.032-0.055 0.032-0.082 0.004 0.027 0.019 0.039 0.043 0.039zm-0.356-0.321c0.059 0.055 0.117 0.11 0.18 0.161-0.024 0.027-0.047 0.054-0.07 0.082l0.031 0.281c-0.125-0.16-0.199-0.336-0.223-0.524h0.082zm-0.066-0.558c-0.09-0.106-0.18-0.188-0.266-0.238h0.281l0.036-0.043c0.027 0.027 0.07 0.054 0.128 0.082 0 0.027 0.016 0.039 0.043 0.039-0.05 0.027-0.128 0.039-0.234 0.039l0.012 0.121zm-0.309 0.082-0.039-0.32h0.082c0.039 0.105 0.106 0.226 0.199 0.359l-0.148 0.078c-0.031-0.027-0.047-0.051-0.051-0.078l-0.043-0.039zm-0.129-0.762c-0.035-0.082-0.054-0.148-0.062-0.199l0.023-0.16c-0.004-0.028 0.02-0.055 0.071-0.082 0.015 0.136 0.085 0.293 0.214 0.48-0.082 0-0.132 0.028-0.152 0.082-0.027-0.027-0.062-0.066-0.094-0.121zm0.36 0c-0.125-0.16-0.219-0.305-0.289-0.441h0.16c0.035 0.082 0.125 0.176 0.273 0.281-0.023 0.055-0.058 0.094-0.109 0.121l-0.035 0.039zm-0.059 0.16c0.055 0.028 0.098 0.067 0.133 0.121h-0.281c0.07-0.082 0.121-0.121 0.148-0.121zm1.266 0.918c-0.059-0.023-0.102-0.05-0.129-0.078 0.035 0.012 0.078 0.028 0.125 0.039l0.043 0.039h-0.039zm-0.668-1.277c0.027 0 0.066 0.012 0.125 0.039h-0.082l-0.043-0.039zm-0.887-0.402c-0.004-0.024-0.039-0.106-0.109-0.239-0.032-0.054-0.051-0.093-0.051-0.121h0.117c0.059 0.028 0.125 0.039 0.207 0.039l-0.035 0.043c0.008 0.078 0.086 0.172 0.23 0.278h-0.359zm0.422 0.203c0.004 0.023 0.019 0.051 0.051 0.078-0.032-0.027-0.063-0.055-0.09-0.078h0.039zm-0.266-0.563c-0.109-0.027-0.191-0.051-0.246-0.078 0.078 0 0.16 0.012 0.242 0.039l0.004 0.039zm-0.144-0.238c-0.078 0.027-0.141 0.051-0.192 0.078-0.004-0.027 0.008-0.039 0.035-0.039 0.02-0.055 0.043-0.078 0.071-0.078l0.086 0.039zm0.195-0.039c-0.031-0.027-0.059-0.043-0.086-0.043-0.004-0.024-0.019-0.051-0.051-0.078 0.063 0.054 0.121 0.094 0.176 0.121h-0.039zm-0.258-0.481h-0.199c-0.004-0.027-0.02-0.054-0.051-0.082h0.242l0.008 0.082zm0.262-0.16c0.023-0.027 0.035-0.054 0.031-0.082 0.031 0.055 0.063 0.094 0.094 0.121h-0.121l-0.004-0.039zm-0.633-0.281-0.07 0.078c-0.086-0.051-0.16-0.133-0.227-0.238-0.008-0.051-0.031-0.137-0.07-0.262 0.012 0.016 0.023 0.024 0.043 0.024 0.066 0.105 0.187 0.226 0.359 0.359-0.023 0-0.035 0.012-0.035 0.039zm0.051-0.281c0.051 0 0.121 0.015 0.203 0.043l0.008 0.078h-0.199l-0.133-0.121h0.121zm0.043 0.402 0.031-0.082c0.027 0 0.055 0.016 0.086 0.039 0.031 0.027 0.059 0.055 0.09 0.082l0.043 0.039h-0.238l-0.012-0.078zm0.676-0.043 0.011 0.082-0.046-0.039 0.035-0.043zm-0.621-0.879-0.133-0.121c-0.028 0-0.043-0.012-0.047-0.039 0.027 0 0.082 0.016 0.168 0.039l0.008 0.082 0.004 0.039zm-0.098 0.199c-0.137-0.023-0.27-0.039-0.402-0.039l0.035-0.039h0.359l0.008 0.078zm-0.356-0.32c0.032 0.027 0.059 0.043 0.086 0.043l0.008 0.078h-0.238l-0.008-0.039c0.024-0.027 0.063-0.055 0.113-0.082h0.039zm0.016-0.199c-0.059-0.051-0.102-0.094-0.133-0.117l-0.004-0.043c0.028 0 0.055 0.015 0.086 0.043 0 0.023 0.02 0.066 0.051 0.117zm0.078-0.039c0.055 0.027 0.11 0.055 0.168 0.082h-0.121c-0.027-0.027-0.047-0.055-0.047-0.082zm-0.308-1.281h-0.243l-0.043-0.039-0.003-0.04c0.027 0 0.05-0.015 0.074-0.039 0.031 0.024 0.058 0.039 0.086 0.039 0.027 0.028 0.07 0.055 0.129 0.079zm0.199-0.36c-0.004-0.027 0.008-0.051 0.031-0.078 0.004 0.051-0.004 0.106-0.023 0.16l-0.008-0.082zm-0.195 1.801-0.012-0.121c0.031 0.027 0.074 0.066 0.133 0.121-0.028 0-0.063 0.012-0.114 0.039l-0.007-0.039zm-0.551-1.68-0.039-0.32c0.027 0 0.066-0.012 0.117-0.039l0.004 0.039h-0.082l0.019 0.16c0.004 0.028 0.035 0.067 0.094 0.121l0.004 0.039h-0.117zm1.304-1.16h-0.078l-0.008-0.039c0.028 0 0.055-0.016 0.079-0.043l0.007 0.082zm-0.73 0.961c-0.023 0-0.051 0.012-0.074 0.039-0.082-0.027-0.18-0.066-0.293-0.121 0.011-0.105 0.07-0.184 0.172-0.238 0.027 0.027 0.093 0.133 0.195 0.32zm0.082-0.68c0.129-0.054 0.219-0.082 0.273-0.082-0.023 0.055-0.027 0.133-0.015 0.243l-0.133-0.122-0.125-0.039zm1.359-1.043 0.047 0.043h-0.039l-0.008-0.043zm-0.066 0.122h-0.039c0.004 0.027-0.008 0.039-0.035 0.039-0.067-0.106-0.117-0.2-0.153-0.278h0.2l0.027 0.239zm-0.438 0c0.02-0.055 0.067-0.106 0.141-0.161 0.008 0.082 0.043 0.149 0.102 0.2h-0.079c-0.003-0.024-0.058-0.039-0.164-0.039zm0.047-0.282-0.074 0.043c-0.008-0.054 0.012-0.121 0.055-0.203l0.019 0.16zm0.461-0.16-0.023-0.199c0.004 0.027 0.019 0.043 0.047 0.043 0.008 0.078 0.054 0.144 0.14 0.199h-0.078l-0.086-0.043zm-0.351 0.082c-0.032-0.055-0.051-0.094-0.051-0.121-0.012-0.078 0.012-0.117 0.062-0.117l0.079-0.043c0.007 0.082 0.043 0.16 0.105 0.242-0.062 0.004-0.129 0.016-0.195 0.039zm0.386-0.48 0.004 0.039-0.035 0.043c-0.004-0.028-0.019-0.039-0.043-0.043 0.024 0 0.051-0.012 0.074-0.039zm7.34-1.2c0.16 0 0.274 0.04 0.336 0.122-0.047 0.05-0.086 0.093-0.105 0.117 0.004 0.054 0.023 0.109 0.054 0.16-0.078 0-0.171-0.012-0.281-0.039-0.012-0.078-0.035-0.172-0.074-0.281l0.07-0.079zm-0.156 0.36h-0.32c0.047-0.055 0.117-0.121 0.215-0.199 0.058 0.027 0.089 0.078 0.097 0.16l0.008 0.039zm0.828-0.078-0.105 0.117h-0.078c0.05-0.024 0.109-0.066 0.183-0.117zm-1.949 0.078c-0.031-0.027-0.059-0.039-0.086-0.039l-0.016-0.16-0.007-0.039c0.109 0.027 0.214 0.105 0.308 0.238h-0.199zm-0.824-0.199h0.082l0.023 0.199c-0.062-0.055-0.094-0.106-0.101-0.16l-0.004-0.039zm-0.098 0.199h-0.199c-0.028-0.027-0.047-0.067-0.055-0.121 0-0.028 0.008-0.051 0.031-0.078 0.036 0.05 0.079 0.093 0.137 0.121l0.086 0.078zm0.48 0l-0.015-0.16c0.031 0.054 0.062 0.105 0.098 0.16h-0.083zm-1.519-0.36 0.105-0.121 0.004 0.039c-0.047 0.055-0.093 0.122-0.136 0.204h-0.078c0.019-0.055 0.054-0.094 0.105-0.122zm0.582 0.2 0.016 0.121c-0.059-0.028-0.114-0.039-0.168-0.039 0-0.028-0.02-0.055-0.047-0.082 0.043-0.078 0.09-0.133 0.14-0.16h0.039l0.02 0.16zm-1.402 0.32-0.094-0.121-0.004-0.039 0.035-0.039c0.141 0.054 0.293 0.105 0.457 0.16-0.129 0.027-0.262 0.051-0.39 0.078l-0.004-0.039zm0.648-0.281h0.078l-0.035 0.043c-0.004-0.028-0.019-0.039-0.043-0.043zm-2.672 0.761h-0.281c-0.059-0.054-0.129-0.082-0.211-0.082 0.027-0.023 0.086-0.066 0.188-0.117 0.078-0.027 0.128-0.043 0.156-0.043 0.004 0.055 0.039 0.11 0.097 0.16 0.004 0.028 0.02 0.055 0.051 0.082zm-0.031-0.242c0.023-0.023 0.051-0.039 0.078-0.039l0.02 0.16-0.098-0.121zm0.66-0.199h-0.203l-0.004-0.039 0.207 0.039z" inkscape:connector-curvature="0"/>
      <path id="path16" style="fill-rule:evenodd;fill:#993300" d="m11.188 4.572c-0.227-0.082-0.477-0.172-0.758-0.269-0.543-0.258-0.95-0.504-1.219-0.738-0.121-0.118-0.254-0.317-0.395-0.594-0.031-0.024-0.046-0.156-0.05-0.399 0.019-0.054 0.035-0.152 0.046-0.285 0.055-0.195 0.079-0.347 0.063-0.453l-0.004-0.039c0.016-0.082 0.02-0.164 0.012-0.242l-0.035-0.278c-0.059-0.019-0.102-0.042-0.129-0.066l-0.114 0.055-0.039 0.004c-0.199 0.804-0.308 1.312-0.336 1.531-0.031 0.191-0.042 0.422-0.035 0.691l0.067 0.555c0.07 0.582 0.258 1.098 0.554 1.543 0.364 0.574 0.875 0.914 1.536 1.02l0.035-0.043c-0.66-0.325-1.145-0.774-1.457-1.352-0.137-0.227-0.227-0.523-0.27-0.895 0.059 0.29 0.449 0.711 1.16 1.266 0.793 0.547 1.723 0.676 2.789 0.383-1.414-0.149-2.437-0.586-3.062-1.317-0.16-0.195-0.281-0.406-0.363-0.636 0.601 0.515 1.273 0.742 2.019 0.676l-0.015-0.118z" inkscape:connector-curvature="0"/>
      <path id="path18" style="fill-rule:evenodd;fill:#993300" d="m18.227 4.342c-0.235-0.035-0.5-0.074-0.793-0.121-0.582-0.153-1.028-0.317-1.336-0.496-0.141-0.094-0.309-0.266-0.5-0.512-0.032-0.016-0.075-0.145-0.121-0.379 0.007-0.059 0.003-0.156-0.012-0.293 0.019-0.199 0.015-0.351-0.02-0.453l-0.011-0.039c0-0.082-0.012-0.164-0.036-0.238l-0.086-0.27c-0.058-0.008-0.105-0.019-0.136-0.039l-0.102 0.074-0.039 0.016c-0.043 0.824-0.058 1.344-0.043 1.566 0.008 0.192 0.039 0.422 0.094 0.68l0.172 0.535c0.18 0.559 0.453 1.027 0.828 1.41 0.469 0.496 1.035 0.735 1.699 0.715l0.027-0.051c-0.707-0.191-1.265-0.543-1.683-1.054-0.172-0.196-0.317-0.469-0.434-0.825 0.117 0.27 0.575 0.614 1.379 1.024 0.883 0.391 1.817 0.344 2.809-0.145-1.418 0.121-2.5-0.121-3.254-0.718-0.191-0.161-0.348-0.348-0.473-0.563 0.688 0.399 1.391 0.492 2.106 0.289l-0.035-0.113z" inkscape:connector-curvature="0"/>
      <path id="path20" style="fill-rule:evenodd;fill:#993300" d="m16.91 11.522h0.02v-0.364c-0.16-0.023-0.305-0.066-0.438-0.117-0.215-0.137-0.375-0.203-0.48-0.203-0.403 0.16-0.973 0.242-1.723 0.242-0.211 0-0.465-0.039-0.758-0.121-0.082 0-0.16-0.012-0.242-0.039-0.019 0.117-0.035 0.223-0.039 0.32 0.027 0.399 0.215 0.801 0.562 1.2l0.399 0.398c0.266 0.137 0.559 0.203 0.879 0.203 0.508 0 0.933-0.176 1.281-0.519 0.293-0.293 0.473-0.629 0.539-1zm-0.859-0.961c0.054 0 0.187 0.054 0.398 0.16 0.129 0.051 0.281 0.097 0.461 0.14-0.07-0.363-0.254-0.675-0.539-0.941-0.348-0.375-0.773-0.559-1.281-0.559-0.504 0-0.945 0.184-1.32 0.559-0.219 0.223-0.375 0.477-0.458 0.762 0.372 0.105 0.7 0.156 0.977 0.156 0.199 0 0.391-0.004 0.582-0.02 0.086-0.019 0.172-0.039 0.262-0.058 0.117-0.02 0.23-0.035 0.34-0.039 0.199-0.047 0.39-0.098 0.578-0.16z" inkscape:connector-curvature="0"/>
      <path id="path22" style="fill-rule:evenodd;fill:#000000" d="m9.879 18.053c-0.691-0.113-1.231-0.473-1.625-1.09-0.399-0.586-0.539-1.254-0.418-2 0.113-0.719 0.449-1.297 1.012-1.73 0.562-0.461 1.191-0.637 1.879-0.528 0.691 0.11 1.23 0.473 1.625 1.086 0.429 0.59 0.586 1.246 0.472 1.965-0.121 0.746-0.476 1.336-1.066 1.766-0.563 0.461-1.192 0.64-1.879 0.531z" inkscape:connector-curvature="0"/>
      <path id="path24" style="fill-rule:evenodd;fill:#ffffff" d="m10.02 17.752c-0.692-0.109-1.235-0.457-1.633-1.043-0.399-0.586-0.539-1.254-0.418-2.004 0.113-0.719 0.449-1.293 1.011-1.726 0.563-0.461 1.192-0.641 1.879-0.532 0.692 0.11 1.231 0.473 1.625 1.09 0.43 0.59 0.586 1.242 0.473 1.961-0.121 0.75-0.477 1.34-1.066 1.766-0.559 0.433-1.184 0.597-1.871 0.488z" inkscape:connector-curvature="0"/>
      <path id="path26" style="fill-rule:evenodd;fill:#000000" d="m18.973 17.4c0.613 0 1.132-0.242 1.558-0.718 0.426-0.457 0.641-1.016 0.641-1.684 0-0.637-0.215-1.183-0.641-1.637-0.426-0.48-0.945-0.722-1.558-0.722-0.618 0-1.137 0.242-1.563 0.722-0.453 0.454-0.68 1-0.68 1.637 0 0.668 0.227 1.227 0.68 1.684 0.426 0.476 0.945 0.718 1.563 0.718z" inkscape:connector-curvature="0"/>
      <path id="path28" style="fill-rule:evenodd;fill:#ffffff" d="m18.891 17.119c0.613 0 1.132-0.226 1.558-0.679 0.43-0.454 0.641-1.012 0.641-1.68 0-0.641-0.211-1.188-0.641-1.641-0.426-0.48-0.945-0.719-1.558-0.719-0.614 0-1.133 0.239-1.559 0.719-0.453 0.453-0.68 1-0.68 1.641 0 0.668 0.227 1.226 0.68 1.68 0.426 0.453 0.945 0.679 1.559 0.679z" inkscape:connector-curvature="0"/>
      <path id="path30" style="fill-rule:evenodd;fill:#000000" d="m10.969 15.115c0.156-0.523 0.121-1.047-0.098-1.574-0.051-0.078-0.113-0.156-0.191-0.238-0.282-0.285-0.629-0.445-1.047-0.473-0.41-0.031-0.762 0.094-1.047 0.379-0.316 0.285-0.508 0.652-0.57 1.098-0.032 0.441 0.078 0.824 0.332 1.14 0.285 0.317 0.636 0.493 1.047 0.524 0.043 0.004 0.085 0.004 0.121 0 0.601 0.015 1.086-0.274 1.453-0.856zm-1.215 0.024c-0.199 0.269-0.445 0.386-0.738 0.355-0.098 0-0.239-0.078-0.43-0.238-0.063-0.031-0.113-0.094-0.145-0.188-0.156-0.351-0.093-0.636 0.192-0.859l-0.024-0.023c0.352-0.418 0.676-0.434 0.977-0.047 0.305 0.394 0.359 0.726 0.168 1z" inkscape:connector-curvature="0"/>
      <path id="path32" style="fill-rule:evenodd;fill:#ffffff" d="m9.754 15.139c0.191-0.274 0.137-0.606-0.168-1-0.301-0.387-0.625-0.371-0.977 0.047l0.024 0.023c-0.285 0.223-0.348 0.508-0.192 0.859 0.032 0.094 0.082 0.157 0.145 0.188 0.191 0.16 0.332 0.238 0.43 0.238 0.293 0.031 0.539-0.086 0.738-0.355z" inkscape:connector-curvature="0"/>
      <path id="path34" style="fill-rule:evenodd;fill:#000000" d="m18.867 14.838c0.172-0.426 0.188-0.867 0.047-1.32-0.035-0.071-0.082-0.145-0.141-0.215-0.211-0.266-0.492-0.426-0.835-0.485-0.344-0.058-0.645 0.016-0.907 0.235-0.289 0.211-0.476 0.5-0.566 0.867-0.063 0.371 0 0.695 0.183 0.984 0.215 0.286 0.493 0.461 0.836 0.52 0.036 0.008 0.071 0.012 0.098 0.012 0.504 0.062 0.934-0.141 1.285-0.598zm-1.019-0.078c-0.188 0.207-0.403 0.285-0.645 0.238-0.078-0.008-0.191-0.086-0.34-0.234-0.051-0.031-0.086-0.09-0.101-0.172-0.106-0.305-0.028-0.539 0.226-0.699l-0.015-0.024c0.324-0.32 0.597-0.308 0.82 0.039 0.223 0.356 0.242 0.637 0.055 0.852z" inkscape:connector-curvature="0"/>
      <path id="path36" style="fill-rule:evenodd;fill:#ffffff" d="m17.848 14.76c0.187-0.215 0.168-0.496-0.055-0.852-0.223-0.347-0.496-0.359-0.82-0.039l0.015 0.024c-0.254 0.16-0.332 0.394-0.226 0.699 0.015 0.082 0.05 0.141 0.101 0.172 0.149 0.148 0.262 0.226 0.34 0.234 0.242 0.047 0.457-0.031 0.645-0.238z" inkscape:connector-curvature="0"/>
      <path id="path38" style="fill-rule:evenodd;fill:#ae5215" d="m6.07 11.022c-0.078 0.05-0.152 0.097-0.218 0.136 0.48-0.16 0.96-0.414 1.437-0.758 0.508-0.347 0.789-0.707 0.844-1.082 0.051-0.371-0.082-0.679-0.403-0.918-0.32-0.265-0.597-0.375-0.839-0.32-0.079-0.586-0.426-0.851-1.039-0.801-0.321 0.028-0.629 0.121-0.922 0.282h-0.039c-0.692-0.426-1.239-0.547-1.641-0.36-0.426 0.211-0.691 0.492-0.801 0.84-0.078 0.133-0.078 0.254 0 0.359-0.637 0.051-1.039 0.161-1.199 0.321-0.027 0.023-0.039 0.133-0.039 0.32 0 0.453 0.281 0.906 0.84 1.359 0.371 0.297 0.832 0.555 1.379 0.778 0.05 0.023 0.097 0.043 0.14 0.062-0.058-0.039-0.117-0.07-0.179-0.101-0.5-0.332-0.891-0.617-1.18-0.86-0.559-0.453-0.84-0.867-0.84-1.238 0-0.109 0.012-0.176 0.039-0.203 0.055-0.051 0.172-0.105 0.36-0.16h0.761c0.321 0.48 0.602 0.722 0.84 0.722 0.215 0 0.32-0.027 0.32-0.082 0.079-0.16-0.015-0.332-0.281-0.519-0.293-0.184-0.504-0.277-0.64-0.277-0.106-0.188-0.161-0.336-0.161-0.442l0.043-0.039c0.453-0.586 1.024-0.734 1.719-0.441 0.106 0.027 0.199 0.066 0.281 0.121l-0.203 0.359v0.121c0 0.078 0.016 0.16 0.043 0.239 0.028 0.054 0.106 0.16 0.238 0.32 0.215 0.187 0.403 0.187 0.559 0 0.027-0.027 0.043-0.055 0.043-0.082v-0.199c0-0.106-0.027-0.2-0.082-0.278 0-0.054-0.012-0.093-0.039-0.121l-0.078-0.32c0.398-0.238 0.824-0.281 1.277-0.121 0.082 0.054 0.149 0.121 0.199 0.199l0.082 0.203c-0.105 0.024-0.187 0.039-0.242 0.039-0.344 0.028-0.543 0.227-0.597 0.598-0.055 0.16-0.016 0.269 0.121 0.32 0 0.027 0.039 0.043 0.117 0.043 0.133 0 0.308-0.016 0.519-0.043 0.137-0.023 0.254-0.117 0.364-0.277 0.023-0.082 0.066-0.188 0.117-0.321 0.187 0.028 0.348 0.172 0.48 0.438 0.133 0.215 0.2 0.402 0.2 0.562 0 0.29-0.458 0.754-1.379 1.399-0.024 0.016-0.043 0.027-0.059 0.039-0.094 0.066-0.18 0.129-0.262 0.184zm0.141-2.262c-0.238-0.106-0.199-0.238 0.121-0.399l0.52 0.039c-0.106 0.133-0.176 0.227-0.2 0.278-0.136 0.137-0.281 0.16-0.441 0.082zm-1.078-0.199c-0.11 0.054-0.215 0.027-0.321-0.082-0.109-0.106-0.16-0.2-0.16-0.278 0-0.054 0.012-0.093 0.039-0.121v-0.039c0-0.055 0.028-0.094 0.079-0.121 0.027-0.027 0.066-0.039 0.121-0.039h0.039l0.082 0.199c0 0.028 0.011 0.055 0.039 0.078 0.054 0.137 0.082 0.254 0.082 0.364v0.039zm-2.242 0.277-0.039-0.117c0.132 0 0.253 0.039 0.359 0.117l0.32 0.32v0.043c-0.054 0-0.16-0.054-0.32-0.16-0.16-0.082-0.266-0.148-0.32-0.203z" inkscape:connector-curvature="0"/>
      <path id="path40" style="fill-rule:evenodd;fill:#ffcc00" d="m3.43 11.178c0.039 0.055 0.074 0.09 0.101 0.101l2-0.039 0.539-0.218c0.082-0.055 0.168-0.118 0.262-0.184 0.016-0.012 0.035-0.023 0.059-0.039 0.921-0.645 1.379-1.109 1.379-1.399 0-0.16-0.067-0.347-0.2-0.562-0.132-0.266-0.293-0.41-0.48-0.438-0.051 0.133-0.094 0.239-0.117 0.321-0.11 0.16-0.227 0.254-0.364 0.277-0.211 0.027-0.386 0.043-0.519 0.043-0.078 0-0.117-0.016-0.117-0.043-0.137-0.051-0.176-0.16-0.121-0.32 0.054-0.371 0.253-0.57 0.597-0.598 0.055 0 0.137-0.015 0.242-0.039l-0.082-0.203c-0.05-0.078-0.117-0.145-0.199-0.199-0.453-0.16-0.879-0.117-1.277 0.121l0.078 0.32c0.027 0.028 0.039 0.067 0.039 0.121 0.055 0.078 0.082 0.172 0.082 0.278v0.199c0 0.027-0.016 0.055-0.043 0.082-0.156 0.187-0.344 0.187-0.559 0-0.132-0.16-0.214-0.266-0.238-0.32-0.027-0.079-0.043-0.161-0.043-0.239v-0.121l0.203-0.359c-0.082-0.055-0.175-0.094-0.281-0.121-0.695-0.293-1.266-0.145-1.719 0.441l-0.043 0.039c0 0.106 0.055 0.254 0.161 0.442 0.136 0 0.347 0.093 0.64 0.277 0.266 0.187 0.36 0.359 0.281 0.519 0 0.055-0.105 0.082-0.32 0.082-0.238 0-0.519-0.242-0.84-0.722h-0.761c-0.184 0.055-0.305 0.109-0.36 0.16-0.027 0.027-0.039 0.094-0.039 0.203 0 0.371 0.281 0.785 0.84 1.238 0.289 0.243 0.68 0.528 1.18 0.86 0.062 0.031 0.121 0.062 0.179 0.101-0.043-0.019-0.09-0.039-0.14-0.062zm-0.539-2.34c0.054 0.055 0.16 0.121 0.32 0.203 0.16 0.106 0.266 0.16 0.32 0.16v-0.043l-0.32-0.32c-0.106-0.078-0.227-0.117-0.359-0.117l0.039 0.117zm2.242-0.277v-0.039c0-0.11-0.028-0.227-0.082-0.364-0.028-0.023-0.039-0.05-0.039-0.078l-0.082-0.199h-0.039c-0.051 0-0.094 0.012-0.121 0.039-0.051 0.027-0.079 0.066-0.079 0.121v0.039c-0.027 0.028-0.039 0.067-0.039 0.121 0 0.078 0.051 0.172 0.16 0.278 0.106 0.109 0.211 0.136 0.321 0.082zm1.078 0.199c0.16 0.078 0.305 0.055 0.441-0.082 0.024-0.051 0.094-0.145 0.2-0.278l-0.52-0.039c-0.32 0.161-0.359 0.293-0.121 0.399z" inkscape:connector-curvature="0"/>
    </g>
  </g>
<metadata><rdf:RDF><cc:Work><dc:format>image/svg+xml</dc:format><dc:type rdf:resource="http://purl.org/dc/dcmitype/StillImage"/><cc:license rdf:resource="http://creativecommons.org/licenses/publicdomain/"/><dc:publisher><cc:Agent rdf:about="http://openclipart.org/"><dc:title>Openclipart</dc:title></cc:Agent></dc:publisher></cc:Work><cc:License rdf:about="http://creativecommons.org/licenses/publicdomain/"><cc:permits rdf:resource="http://creativecommons.org/ns#Reproduction"/><cc:permits rdf:resource="http://creativecommons.org/ns#Distribution"/><cc:permits rdf:resource="http://creativecommons.org/ns#DerivativeWorks"/></cc:License></rdf:RDF></metadata></svg>
